<svg width="500" height="500" viewBox="0 0 500 500" fill="none" xmlns="http://www.w3.org/2000/svg">
<line x1="77.762" y1="80.5621" x2="425.692" y2="428.492" stroke="white" stroke-width="5"/>
<line x1="425.692" y1="84.0976" x2="81.3863" y2="428.404" stroke="white" stroke-width="5"/>
<path d="M69.0934 31.048C68.5494 30.824 67.9414 30.664 67.2694 30.568C66.6294 30.44 65.8454 30.376 64.9174 30.376C63.6054 30.376 62.3094 30.616 61.0294 31.096C59.7814 31.576 58.6614 32.36 57.6694 33.448C56.7094 34.536 55.9254 35.96 55.3174 37.72C54.7414 39.48 54.4534 41.64 54.4534 44.2C54.4534 46.504 54.7094 48.52 55.2214 50.248C55.7654 51.976 56.5014 53.416 57.4294 54.568C58.3894 55.72 59.5254 56.584 60.8374 57.16C62.1814 57.736 63.6694 58.024 65.3014 58.024C66.1334 58.024 66.9014 57.96 67.6054 57.832C68.3414 57.672 69.0134 57.464 69.6214 57.208V52.408H73.1734V58.888L73.2214 58.984C72.2614 59.72 71.0454 60.344 69.5734 60.856C68.1014 61.336 66.3094 61.576 64.1974 61.576C62.1814 61.576 60.3094 61.24 58.5814 60.568C56.8854 59.864 55.4134 58.808 54.1654 57.4C52.9174 55.992 51.9414 54.2 51.2374 52.024C50.5654 49.816 50.2294 47.208 50.2294 44.2C50.2294 41.064 50.6134 38.408 51.3814 36.232C52.1494 34.024 53.1894 32.232 54.5014 30.856C55.8134 29.448 57.3334 28.424 59.0614 27.784C60.8214 27.144 62.6934 26.824 64.6774 26.824C65.7654 26.824 66.7094 26.872 67.5094 26.968C68.3094 27.032 69.0134 27.144 69.6214 27.304C70.2294 27.432 70.7574 27.608 71.2054 27.832C71.6854 28.056 72.1494 28.312 72.5974 28.6H72.6454V36.184H69.0934V31.048Z" fill="white"/>
<path d="M426.029 27.4H450.989V36.184H447.437V30.952H440.477V57.448H445.757V61H431.213V57.448H436.493V30.952H429.581V36.184H426.029V27.4Z" fill="white"/>
<path d="M431.309 468.248C432.269 468.76 433.341 469.192 434.525 469.544C435.741 469.864 436.957 470.024 438.173 470.024C439.229 470.024 440.221 469.928 441.149 469.736C442.077 469.512 442.877 469.176 443.549 468.728C444.253 468.248 444.797 467.656 445.181 466.952C445.597 466.248 445.805 465.416 445.805 464.456C445.805 463.144 445.357 462.072 444.461 461.24C443.597 460.408 442.509 459.672 441.197 459.032C439.885 458.392 438.461 457.768 436.925 457.16C435.389 456.552 433.965 455.832 432.653 455C431.341 454.168 430.237 453.16 429.341 451.976C428.477 450.76 428.045 449.224 428.045 447.368C428.045 446.056 428.301 444.872 428.813 443.816C429.357 442.76 430.109 441.864 431.069 441.128C432.029 440.392 433.181 439.832 434.525 439.448C435.901 439.032 437.421 438.824 439.085 438.824C441.005 438.824 442.749 438.968 444.317 439.256C445.885 439.512 447.133 439.864 448.061 440.312L448.157 440.264V440.36H448.205L448.157 440.504V448.184H444.605V443.048C443.805 442.856 442.925 442.696 441.965 442.568C441.005 442.44 439.981 442.376 438.893 442.376C437.837 442.376 436.877 442.504 436.013 442.76C435.181 443.016 434.461 443.368 433.853 443.816C433.277 444.232 432.829 444.728 432.509 445.304C432.189 445.88 432.029 446.488 432.029 447.128C432.029 448.376 432.461 449.416 433.325 450.248C434.221 451.08 435.325 451.832 436.637 452.504C437.949 453.144 439.373 453.784 440.909 454.424C442.445 455.064 443.869 455.816 445.181 456.68C446.493 457.512 447.581 458.52 448.445 459.704C449.341 460.888 449.789 462.36 449.789 464.12C449.789 465.56 449.517 466.856 448.973 468.008C448.461 469.16 447.709 470.152 446.717 470.984C445.757 471.816 444.557 472.456 443.117 472.904C441.709 473.352 440.109 473.576 438.317 473.576C437.101 473.576 435.949 473.48 434.861 473.288C433.773 473.096 432.765 472.856 431.837 472.568C430.941 472.28 430.125 471.976 429.389 471.656C428.685 471.336 428.125 471.064 427.709 470.84L427.757 470.696V462.92H431.309V468.248Z" fill="white"/>
<path d="M69.0454 457.592H53.9734V473H49.9894V439.4H53.9734V454.04H69.0454V439.4H73.0294V473H69.0454V457.592Z" fill="white"/>
<path d="M346.662 110.807C516.085 189.337 431.74 423.461 324.659 421.993C217.578 420.525 232.247 344.197 109.03 284.748C-14.1864 225.3 133.429 105.026 177.239 88.789C236.647 66.7711 281.523 80.6136 346.662 110.807Z" fill="url(#paint0_linear)"/>
<defs>
<linearGradient id="paint0_linear" x1="443" y1="250" x2="61" y2="250" gradientUnits="userSpaceOnUse">
<stop stop-color="#3186FF" stop-opacity="0.65"/>
<stop offset="1" stop-opacity="0"/>
</linearGradient>
</defs>
</svg>
