<?xml version="1.0" encoding="UTF-8"?>
<svg width="405px" height="275px" viewBox="0 0 405 275" version="1.1" xmlns="http://www.w3.org/2000/svg" xmlns:xlink="http://www.w3.org/1999/xlink">
    <!-- Generator: Sketch 55.1 (78136) - https://sketchapp.com -->
    <title>3</title>
    <desc>Created with Sketch.</desc>
    <defs>
        <linearGradient x1="14.512826%" y1="14.0536331%" x2="88.2529693%" y2="82.8944633%" id="linearGradient-1">
            <stop stop-color="#FFFFFF" offset="0%"></stop>
            <stop stop-color="#000000" offset="100%"></stop>
        </linearGradient>
        <path d="M0.582334643,54.8533333 C0.582334643,85.0633333 25.0470259,109.64 55.1193841,109.64 L55.1193841,109.64 C85.1917423,109.64 109.656434,85.0633333 109.656434,54.8533333 L109.656434,54.8533333 C109.656434,24.6433333 85.1917423,0.0666666667 55.1193841,0.0666666667 L55.1193841,0.0666666667 C25.0470259,0.0666666667 0.582334643,24.6433333 0.582334643,54.8533333 M27.9056088,54.8533333 C27.9056088,39.7783333 40.1130683,27.515 55.1193841,27.515 L55.1193841,27.515 C70.1256999,27.515 82.3331595,39.7783333 82.3331595,54.8533333 L82.3331595,54.8533333 C82.3331595,69.93 70.1256999,82.1933333 55.1193841,82.1933333 L55.1193841,82.1933333 C40.1130683,82.1933333 27.9056088,69.93 27.9056088,54.8533333" id="path-2"></path>
        <linearGradient x1="92.162108%" y1="86.6746315%" x2="18.0448002%" y2="15.1616761%" id="linearGradient-4">
            <stop stop-color="#FFFFFF" offset="0%"></stop>
            <stop stop-color="#000000" offset="100%"></stop>
        </linearGradient>
        <path d="M0.720356134,96.2214165 L96.5077583,96.2214165 L96.5077583,0.434014326 L0.720356134,0.434014326 L0.720356134,96.2214165 Z M28.1171802,68.8212651 L69.1092706,68.8212651 L69.1092706,27.8308384 L28.1171802,27.8308384 L28.1171802,68.8212651 Z" id="path-5"></path>
        <linearGradient x1="79.8526736%" y1="5.26317836%" x2="20.4104549%" y2="91.28752%" id="linearGradient-7">
            <stop stop-color="#000000" offset="0%"></stop>
            <stop stop-color="#E2E2E2" offset="52.1988283%"></stop>
            <stop stop-color="#000000" offset="100%"></stop>
        </linearGradient>
        <polygon id="path-8" points="164.375 0.103333333 0.12 219.106667 34.4316667 219.106667 198.685 0.103333333"></polygon>
    </defs>
    <g id="页面2" stroke="none" stroke-width="1" fill="none" fill-rule="evenodd" opacity="0.635509673">
        <g id="画板备份-2" transform="translate(-105.000000, -96.000000)">
            <g id="3" transform="translate(105.000000, 96.000000)">
                <g id="编组" transform="translate(69.000000, 28.000000)">
                    <mask id="mask-3" fill="white">
                        <use xlink:href="#path-2"></use>
                    </mask>
                    <use id="Clip-2" fill="url(#linearGradient-1)" xlink:href="#path-2"></use>
                </g>
                <g id="编组" transform="translate(192.000000, 151.000000)">
                    <mask id="mask-6" fill="white">
                        <use xlink:href="#path-5"></use>
                    </mask>
                    <use id="Clip-4" fill="url(#linearGradient-4)" xlink:href="#path-5"></use>
                </g>
                <g id="编组" transform="translate(79.000000, 28.000000)">
                    <mask id="mask-9" fill="white">
                        <use xlink:href="#path-8"></use>
                    </mask>
                    <use id="Clip-6" fill="url(#linearGradient-7)" xlink:href="#path-8"></use>
                </g>
                <g id="编组">
                    <polygon id="Stroke-7" stroke="#FFFFFF" stroke-width="0.596" points="69.4671988 247.287594 288.316818 247.287594 288.316818 27.9790991 69.4671988 27.9790991"></polygon>
                    <path d="M42.1104132,137.633179 L315.671605,137.633179" id="Stroke-9" stroke="#FFFFFF" stroke-width="0.596"></path>
                    <path d="M178.892008,0.562699143 L178.892008,274.701656" id="Stroke-10" stroke="#FFFFFF" stroke-width="0.596"></path>
                    <path d="M264.5,22 L76.3064784,274.701656" id="Stroke-11" stroke="#FFFFFF" stroke-width="0.596"></path>
                    <polygon id="Stroke-12" stroke="#FFFFFF" stroke-width="0.596" points="206.247794 233.655941 274.713895 233.655941 274.713895 165.045239 206.247794 165.045239"></polygon>
                    <path d="M164.932727,82.8045532 C164.932727,105.51507 146.561701,123.924896 123.897383,123.924896 C101.236396,123.924896 82.8637036,105.51507 82.8637036,82.8045532 C82.8637036,60.0923672 101.236396,41.682541 123.897383,41.682541 C146.561701,41.682541 164.932727,60.0923672 164.932727,82.8045532 Z" id="Stroke-13" stroke="#FFFFFF" stroke-width="0.596"></path>
                    <g id="编组-5" transform="translate(0.000833, 68.081274)" fill="#FFFFFF">
                        <path d="M1.79095432,9.6364847 L3.65854482,9.6364847 C5.0196701,9.6364847 6.0159405,9.31426683 6.64402401,8.68652632 C7.25544749,8.04042105 7.56365823,7.04371603 7.56365823,5.69474174 C7.56365823,4.31404651 7.25544749,3.29897674 6.64402401,2.68626193 C6.0159405,2.05852142 5.0196701,1.74965973 3.65854482,1.74965973 L1.79095432,1.74965973 L1.79095432,9.6364847 Z M3.99507763,0.215368421 C5.77103791,0.215368421 7.10217512,0.706208078 8.02180933,1.68955692 C8.89479544,2.60946389 9.33795251,3.94508201 9.33795251,5.69474174 C9.33795251,7.42770624 8.89479544,8.76332436 8.02180933,9.69825704 C7.10217512,10.6799364 5.77103791,11.170776 3.99507763,11.170776 L1.09245946e-13,11.170776 L1.09245946e-13,0.215368421 L3.99507763,0.215368421 Z" id="Fill-14"></path>
                        <polygon id="Fill-15" points="18.9066466 0.21603623 18.9066466 1.75032754 12.8124039 1.75032754 12.8124039 4.78718923 18.5384597 4.78718923 18.5384597 6.32148054 12.8124039 6.32148054 12.8124039 9.63715251 19.1665432 9.63715251 19.1665432 11.1714438 11.0214496 11.1714438 11.0214496 0.21603623"></polygon>
                        <path d="M27.7246392,0.799701346 C28.4893351,1.36733905 28.9341581,2.25719461 29.0407824,3.45424235 L27.2648221,3.45424235 C27.1115497,2.7797552 26.821665,2.28724602 26.4234901,1.99674908 C26.0236491,1.68955692 25.4122256,1.55098654 24.6175417,1.55098654 C23.9278161,1.55098654 23.4063568,1.64281028 23.0381699,1.843153 C22.5800188,2.07354712 22.3651043,2.45586781 22.3651043,2.9784284 C22.3651043,3.43754712 22.6116729,3.82320685 23.1314661,4.09867809 C23.3613747,4.22055324 23.9894582,4.45094737 24.9990567,4.77316524 C26.4834662,5.23228397 27.4330885,5.60124847 27.8612515,5.8466683 C28.8108738,6.414306 29.285685,7.19731212 29.285685,8.20904284 C29.285685,9.19072215 28.9025041,9.97372827 28.1378082,10.541366 C27.3714464,11.093978 26.2852118,11.3861444 24.8924324,11.3861444 C23.5446351,11.3861444 22.4867226,11.1256989 21.7370208,10.6031383 C20.8173866,9.95870257 20.3142534,8.94697185 20.2376172,7.5495814 L22.0119115,7.5495814 C22.1368618,8.37933415 22.4267465,8.97535373 22.8998916,9.32929253 C23.3297206,9.6364847 23.9894582,9.80677601 24.8924324,9.80677601 C25.6871163,9.80677601 26.3301939,9.66820563 26.790011,9.40609058 C27.2498281,9.13061934 27.4930647,8.77668054 27.4930647,8.31756181 C27.4930647,7.73322889 27.1415378,7.27411016 26.4684722,6.93686659 C26.2535577,6.82834761 25.548838,6.58292778 24.3409851,6.21396328 C22.9931878,5.78489596 22.1501898,5.47937332 21.830317,5.2940563 C20.987319,4.78819094 20.57415,4.05193146 20.57415,3.08527785 C20.57415,2.11862424 20.9723249,1.35231334 21.7986629,0.799701346 C22.5633588,0.262115055 23.5279751,-2.23820962e-13 24.7075059,-2.23820962e-13 C25.993661,-2.23820962e-13 27.0032595,0.262115055 27.7246392,0.799701346" id="Fill-16"></path>
                        <polygon id="Fill-17" points="30.8169093 11.1704421 32.6078636 11.1704421 32.6078636 0.215034517 30.8169093 0.215034517"></polygon>
                        <path d="M42.8179692,0.936602203 C43.6009911,1.55098654 44.0907963,2.45586781 44.2890507,3.68463647 L42.4814364,3.68463647 C42.32983,2.9784284 41.9916312,2.45586781 41.501826,2.10359853 C40.9970268,1.74965973 40.3239612,1.58270747 39.4976232,1.58270747 C38.4713647,1.58270747 37.6583548,1.91995104 37.0619253,2.62615912 C36.4038537,3.36074908 36.082315,4.38917503 36.082315,5.73981885 C36.082315,7.02702081 36.3738657,8.02539535 36.9536351,8.7149082 C37.5817186,9.45283721 38.5613289,9.82013219 39.8941321,9.82013219 C40.4155914,9.82013219 40.9053966,9.75835985 41.3635477,9.6364847 C41.7933767,9.51460955 42.1748916,9.34431824 42.5430785,9.13061934 L42.5430785,6.87509425 L39.6492296,6.87509425 L39.6492296,5.34080294 L44.3340329,5.34080294 L44.3340329,9.97372827 C43.7525974,10.432847 43.0945259,10.7717601 42.3448241,11.0171799 C41.5468081,11.2625998 40.675488,11.3861444 39.6958777,11.3861444 C37.9499055,11.3861444 36.6037742,10.8335324 35.6374919,9.72997797 C34.7345177,8.6998825 34.2913606,7.36760343 34.2913606,5.73981885 C34.2913606,4.09867809 34.7345177,2.74803427 35.6374919,1.68955692 C36.5887802,0.554281518 37.8732693,-2.06057393e-13 39.4976232,-2.06057393e-13 C40.9053966,-2.06057393e-13 42.0082912,0.308861689 42.8179692,0.936602203" id="Fill-18"></path>
                        <polygon id="Fill-19" points="48.1153622 0.21603623 53.5198792 8.1178869 53.5798553 8.1178869 53.5798553 0.21603623 55.3874697 0.21603623 55.3874697 11.1714438 53.6414975 11.1714438 48.1753383 3.1627437 48.1153622 3.1627437 48.1153622 11.1714438 46.3244078 11.1714438 46.3244078 0.21603623"></polygon>
                    </g>
                    <path d="M322.622173,243.194592 L320.907855,238.391375 L320.847879,238.391375 L319.116901,243.194592 L322.622173,243.194592 Z M321.889132,236.458068 L326.06747,247.413476 L324.153231,247.413476 L323.158627,244.667111 L318.580448,244.667111 L317.585843,247.413476 L315.671605,247.413476 L319.851609,236.458068 L321.889132,236.458068 Z" id="Fill-20" fill="#FFFFFF"></path>
                    <path d="M329.021128,245.449449 C329.251037,245.679843 329.374321,245.97034 329.374321,246.309253 C329.374321,246.646497 329.251037,246.921968 329.021128,247.167388 C328.777892,247.382756 328.501335,247.504632 328.163136,247.504632 C327.826603,247.504632 327.535053,247.382756 327.321804,247.167388 C327.076901,246.921968 326.970277,246.646497 326.970277,246.309253 C326.970277,245.97034 327.076901,245.679843 327.321804,245.449449 C327.535053,245.205699 327.826603,245.09718 328.163136,245.09718 C328.501335,245.09718 328.777892,245.205699 329.021128,245.449449" id="Fill-21" fill="#FFFFFF"></path>
                    <polygon id="Fill-22" fill="#FFFFFF" points="331.348036 247.414477 333.13899 247.414477 333.13899 236.45907 331.348036 236.45907"></polygon>
                    <path d="M337.165555,245.449449 C337.395464,245.679843 337.517082,245.97034 337.517082,246.309253 C337.517082,246.646497 337.395464,246.921968 337.165555,247.167388 C336.920653,247.382756 336.645762,247.504632 336.307563,247.504632 C335.97103,247.504632 335.67948,247.382756 335.464565,247.167388 C335.221329,246.921968 335.114704,246.646497 335.114704,246.309253 C335.114704,245.97034 335.221329,245.679843 335.464565,245.449449 C335.67948,245.205699 335.97103,245.09718 336.307563,245.09718 C336.645762,245.09718 336.920653,245.205699 337.165555,245.449449" id="Fill-23" fill="#FFFFFF"></path>
                    <g id="编组-2" transform="translate(258.000000, 86.000000)" fill="#FFFFFF">
                        <path d="M1.79095432,9.69608666 L4.76143948,9.69608666 C5.4361711,9.69608666 5.97095839,9.58923721 6.35247331,9.37386879 C6.84394449,9.09839755 7.08884708,8.66933023 7.08884708,8.0549459 C7.08884708,7.42553586 6.90392064,6.97977332 6.55239379,6.70430208 C6.18587291,6.42716132 5.6027715,6.29026047 4.80808759,6.29026047 L1.79095432,6.29026047 L1.79095432,9.69608666 Z M1.79095432,4.81774149 L4.53319693,4.81774149 C5.29622676,4.81774149 5.83434606,4.67917111 6.15421883,4.43375129 C6.46076357,4.17163623 6.62902998,3.75759461 6.62902998,3.19162644 C6.62902998,2.66906585 6.46076357,2.28674517 6.15421883,2.05635104 C5.81768602,1.80926169 5.29622676,1.68738654 4.563185,1.68738654 L1.79095432,1.68738654 L1.79095432,4.81774149 Z M5.00800807,0.213198042 C6.09424269,0.213198042 6.95223476,0.475313097 7.56365823,0.996204162 C8.13009959,1.48704382 8.41998429,2.14817479 8.41998429,2.97625802 C8.41998429,3.58897283 8.26837793,4.11153341 7.97682723,4.54060073 C7.68527652,4.93961665 7.27210753,5.23011359 6.7206602,5.44548201 C7.44037393,5.58405239 7.97682723,5.87621885 8.34501411,6.3219814 C8.69654096,6.74937919 8.8798014,7.34873782 8.8798014,8.08499731 C8.8798014,9.18855177 8.49662048,10.0032788 7.74691867,10.5241699 C7.10384112,10.9549067 6.18587291,11.1686056 5.0213361,11.1686056 L0,11.1686056 L0,0.213198042 L5.00800807,0.213198042 Z" id="Fill-24"></path>
                        <path d="M15.1401447,3.22167785 L15.1401447,4.96966805 C14.7436357,4.8477929 14.3754488,4.80104627 14.007262,4.80104627 C13.5491109,4.80104627 13.1359419,4.96966805 12.767755,5.33863256 C12.3379259,5.75267417 12.1396715,6.29026047 12.1396715,6.96474761 L12.1396715,11.1686056 L10.4103593,11.1686056 L10.4103593,3.23670355 L12.1396715,3.23670355 L12.1396715,4.37197895 C12.354586,3.97296304 12.5994886,3.66744039 12.8893733,3.45207197 C13.2425661,3.15990551 13.6540691,3.02133513 14.1455403,3.02133513 C14.5287212,3.02133513 14.865254,3.08310747 15.1401447,3.22167785" id="Fill-25"></path>
                        <path d="M19.7019969,7.59449155 C18.3092175,7.62454296 17.6194919,8.11538262 17.6194919,9.06701053 C17.6194919,9.34248176 17.7261161,9.57454541 17.9726847,9.7581929 C18.2159213,9.94184039 18.524132,10.0486898 18.905647,10.0486898 C19.5803786,10.0486898 20.14682,9.85001665 20.6066371,9.46602644 C21.0647882,9.06701053 21.3096908,8.56114517 21.3096908,7.94676083 L21.3096908,7.54941444 L19.7019969,7.59449155 Z M22.3192892,3.8964989 C22.8107604,4.40236426 23.055663,5.13862375 23.055663,6.10527736 L23.055663,11.1689395 L21.4329751,11.1689395 L21.4329751,10.1271574 C21.1247643,10.5245038 20.7432494,10.8166703 20.2984263,11.0320387 C19.7952931,11.2607633 19.1955317,11.384308 18.507472,11.384308 C17.681134,11.384308 17.0380565,11.1689395 16.5632453,10.7548979 C16.0734401,10.3258306 15.8285375,9.78657479 15.8285375,9.12878286 C15.8285375,8.23892729 16.1650704,7.54941444 16.8697901,7.07360049 C17.5145336,6.61114272 18.4175078,6.36739241 19.5803786,6.33567148 L21.3096908,6.29059437 L21.3096908,5.9834022 C21.3096908,4.93995055 20.7432494,4.43241567 19.6103667,4.43241567 C19.1188955,4.43241567 18.7373806,4.50921371 18.4474959,4.69453072 C18.109297,4.89487344 17.8793885,5.20039608 17.7894243,5.6144377 L16.0584461,5.47586732 C16.2267125,4.60270698 16.6548755,3.95660171 17.3446012,3.55925532 C17.9260366,3.19029082 18.7223865,3.02166903 19.733651,3.02166903 C20.8965218,3.02166903 21.7678419,3.3138355 22.3192892,3.8964989 L22.3192892,3.8964989 Z" id="Fill-26"></path>
                        <path d="M25.1979775,11.1677709 L26.9439497,11.1677709 L26.9439497,3.23586879 L25.1979775,3.23586879 L25.1979775,11.1677709 Z M26.9272897,0.320882252 C27.1422042,0.536250673 27.2638225,0.811721909 27.2638225,1.14896548 C27.2638225,1.48620906 27.1422042,1.77837552 26.9122957,1.99374394 C26.6840531,2.20911236 26.4074964,2.31596181 26.0692976,2.31596181 C25.7327648,2.31596181 25.4578742,2.20911236 25.2279656,1.99374394 C24.9997231,1.76334982 24.8914328,1.48620906 24.8914328,1.14896548 C24.8914328,0.811721909 24.9997231,0.536250673 25.2279656,0.320882252 C25.4578742,0.105513831 25.7327648,0.000333904529 26.0692976,0.000333904529 C26.4074964,0.000333904529 26.6973811,0.105513831 26.9272897,0.320882252 L26.9272897,0.320882252 Z" id="Fill-27"></path>
                        <path d="M36.1587845,6.27540171 L36.1587845,11.1687726 L34.4128123,11.1687726 L34.4128123,6.42732827 C34.4128123,5.12510061 33.8180489,4.47899535 32.623524,4.47899535 C32.193695,4.47899535 31.8121801,4.63426095 31.4889753,4.9397836 C31.1224544,5.27702717 30.9092059,5.76786683 30.8475637,6.39727687 L30.8475637,11.1687726 L29.1015915,11.1687726 L29.1015915,3.2368705 L30.8475637,3.2368705 L30.8475637,4.15677748 C31.1524425,3.7894825 31.5039693,3.49731603 31.8888163,3.31366854 C32.2853252,3.11332583 32.7151542,3.02150208 33.1899654,3.02150208 C35.1641801,3.02150208 36.1587845,4.09500514 36.1587845,6.27540171" id="Fill-28"></path>
                        <polygon id="Fill-29" points="45.3444643 0.213698898 49.0646513 8.80506242 49.1262934 8.80506242 52.8298203 0.213698898 54.9289854 0.213698898 54.9289854 11.1691065 53.1380311 11.1691065 53.1380311 3.62119461 53.0763889 3.62119461 49.8610012 11.1691065 48.3149494 11.1691065 45.0995617 3.62119461 45.0379195 3.62119461 45.0379195 11.1691065 43.2469652 11.1691065 43.2469652 0.213698898"></polygon>
                        <path d="M60.4849422,7.59449155 C59.0921628,7.62454296 58.4024372,8.11538262 58.4024372,9.06701053 C58.4024372,9.34248176 58.5090614,9.57454541 58.75563,9.7581929 C58.9988666,9.94184039 59.3054113,10.0486898 59.6885923,10.0486898 C60.3633239,10.0486898 60.9297652,9.85001665 61.3879164,9.46602644 C61.8477335,9.06701053 62.0926361,8.56114517 62.0926361,7.94676083 L62.0926361,7.54941444 L60.4849422,7.59449155 Z M63.1022345,3.8964989 C63.5920397,4.40236426 63.8386083,5.13862375 63.8386083,6.10527736 L63.8386083,11.1689395 L62.2142543,11.1689395 L62.2142543,10.1271574 C61.9077096,10.5245038 61.5261947,10.8166703 61.0813716,11.0320387 C60.5782384,11.2607633 59.978477,11.384308 59.2904173,11.384308 C58.4640793,11.384308 57.8210018,11.1689395 57.3461906,10.7548979 C56.8563854,10.3258306 56.6114828,9.78657479 56.6114828,9.12878286 C56.6114828,8.23892729 56.9480157,7.54941444 57.6527354,7.07360049 C58.2958129,6.61114272 59.2004531,6.36739241 60.3633239,6.33567148 L62.0926361,6.29059437 L62.0926361,5.9834022 C62.0926361,4.93995055 61.5261947,4.43241567 60.393312,4.43241567 C59.9018408,4.43241567 59.5203259,4.50921371 59.2287751,4.69453072 C58.8922423,4.89487344 58.6623338,5.20039608 58.5723696,5.6144377 L56.8397254,5.47586732 C57.0096578,4.60270698 57.4378208,3.95660171 58.1275465,3.55925532 C58.7089819,3.19029082 59.5053318,3.02166903 60.5165963,3.02166903 C61.6794671,3.02166903 62.5507872,3.3138355 63.1022345,3.8964989 L63.1022345,3.8964989 Z" id="Fill-30"></path>
                        <path d="M71.6751579,3.7125175 C72.3032415,4.20335716 72.7014164,4.93961665 72.8546888,5.93632166 L71.1253766,5.93632166 C71.0154204,5.4304563 70.8038378,5.06316132 70.4972931,4.81774149 C70.1757543,4.57232166 69.7459253,4.44877699 69.226132,4.44877699 C68.5847205,4.44877699 68.0782553,4.67917111 67.7100684,5.17001077 C67.3418815,5.64582472 67.1586211,6.32031187 67.1586211,7.18011603 C67.1586211,8.0549459 67.3285535,8.74612827 67.6950744,9.23696793 C68.0316072,9.71111236 68.5364064,9.95653219 69.211138,9.95653219 C70.3740088,9.95653219 71.0154204,9.37386879 71.1553647,8.22356769 L72.8863429,8.22356769 C72.7014164,9.29707075 72.2882474,10.0951026 71.6601639,10.6159936 C71.0487404,11.121859 70.2207364,11.3839741 69.196144,11.3839741 C67.969965,11.3839741 67.0220087,10.9832886 66.3472771,10.1869263 C65.6892055,9.4189459 65.3676667,8.42224088 65.3676667,7.19514174 C65.3676667,5.998094 65.6892055,5.01641469 66.3322831,4.2651295 C67.0220087,3.43704627 67.9849591,3.02133513 69.226132,3.02133513 C70.2523905,3.02133513 71.0637345,3.25339878 71.6751579,3.7125175" id="Fill-31"></path>
                        <path d="M76.007768,2.84217094e-14 L76.007768,4.29401224 C76.2993187,3.84991922 76.6658396,3.52770135 77.0940026,3.31233293 C77.4771835,3.11365973 77.9203406,3.02183599 78.4268058,3.02183599 C79.3897561,3.02183599 80.1111359,3.29897674 80.584281,3.86494492 C81.0291041,4.40253121 81.2590126,5.20056304 81.2590126,6.25904039 L81.2590126,11.167437 L79.5130404,11.167437 L79.5130404,6.56623256 C79.5130404,5.89007589 79.3747621,5.36918482 79.1148655,5.01691554 C78.8099867,4.63292534 78.3651637,4.44927785 77.7687342,4.44927785 C77.2172869,4.44927785 76.7891239,4.66297674 76.4825791,5.09371359 C76.1610404,5.52278091 76.007768,6.05869767 76.007768,6.73485435 L76.007768,11.167437 L74.2617958,11.167437 L74.2617958,2.84217094e-14 L76.007768,2.84217094e-14 Z" id="Fill-32"></path>
                        <path d="M83.3998278,11.1677709 L85.1458,11.1677709 L85.1458,3.23586879 L83.3998278,3.23586879 L83.3998278,11.1677709 Z M85.132472,0.320882252 C85.3457205,0.536250673 85.4690048,0.811721909 85.4690048,1.14896548 C85.4690048,1.48620906 85.3457205,1.77837552 85.1158119,1.99374394 C84.8859034,2.20911236 84.6110127,2.31596181 84.2744799,2.31596181 C83.9379471,2.31596181 83.6613904,2.20911236 83.4314819,1.99374394 C83.2015733,1.76334982 83.0949491,1.48620906 83.0949491,1.14896548 C83.0949491,0.811721909 83.2015733,0.536250673 83.4314819,0.320882252 C83.6613904,0.105513831 83.9379471,0.000333904529 84.2744799,0.000333904529 C84.6110127,0.000333904529 84.9025634,0.105513831 85.132472,0.320882252 L85.132472,0.320882252 Z" id="Fill-33"></path>
                        <path d="M94.3631338,6.27540171 L94.3631338,11.1687726 L92.6171616,11.1687726 L92.6171616,6.42732827 C92.6171616,5.12510061 92.0207322,4.47899535 90.8262073,4.47899535 C90.3963783,4.47899535 90.0148633,4.63426095 89.6933246,4.9397836 C89.3268037,5.27702717 89.1118892,5.76786683 89.051913,6.39727687 L89.051913,11.1687726 L87.3059408,11.1687726 L87.3059408,3.2368705 L89.051913,3.2368705 L89.051913,4.15677748 C89.3567918,3.7894825 89.7083186,3.49731603 90.0931655,3.31366854 C90.4896745,3.11332583 90.9195035,3.02150208 91.3926487,3.02150208 C93.3668634,3.02150208 94.3631338,4.09500514 94.3631338,6.27540171" id="Fill-34"></path>
                        <path d="M98.2499212,4.9401175 C97.9300484,5.26066585 97.7151339,5.73814933 97.6068436,6.36588984 L101.681889,6.36588984 C101.526951,5.07701836 100.838891,4.44927785 99.6127125,4.44927785 C99.0329431,4.44927785 98.58812,4.60287393 98.2499212,4.9401175 M102.55321,4.3424284 C103.179627,5.1387907 103.501166,6.25904039 103.501166,7.68648225 L97.5785216,7.68648225 C97.6384977,8.42274174 97.8384182,8.99037944 98.173285,9.37270012 C98.5098178,9.75835985 98.999623,9.95703305 99.6277065,9.95703305 C100.16416,9.95703305 100.592323,9.83515789 100.928856,9.58806854 C101.190418,9.38939535 101.418661,9.06717748 101.633575,8.62141493 L103.379548,8.62141493 C103.196287,9.35767442 102.8281,9.98708446 102.276653,10.4779241 C101.573599,11.0772827 100.700613,11.3828054 99.6443666,11.3828054 C98.4648357,11.3828054 97.5302075,11.0155104 96.8421478,10.2942766 C96.10744,9.54299143 95.7392531,8.51456548 95.7392531,7.19564259 C95.7392531,6.01529009 96.075786,5.03194125 96.7805057,4.23390942 C97.4535713,3.4208519 98.3881995,3.02183599 99.5677304,3.02183599 C100.86888,3.02183599 101.863484,3.4509033 102.55321,4.3424284" id="Fill-35"></path>
                        <path d="M111.92115,5.17001077 L114.753357,5.17001077 C115.458077,5.17001077 115.992864,5.01641469 116.361051,4.72424823 C116.697584,4.41872558 116.867516,3.98798874 116.867516,3.43704627 C116.867516,2.83768764 116.697584,2.40862032 116.361051,2.14650526 C116.024518,1.87103403 115.489731,1.74748935 114.753357,1.74748935 L111.92115,1.74748935 L111.92115,5.17001077 Z M114.99826,0.213198042 C116.117814,0.213198042 117.004128,0.460287393 117.647206,0.966152754 C118.321938,1.51709523 118.673464,2.31512705 118.673464,3.36024823 C118.673464,3.92788592 118.520192,4.43375129 118.213647,4.87784431 C117.877114,5.36868397 117.402303,5.69090184 116.819202,5.84449792 L116.819202,5.87621885 C117.77049,6.09158727 118.305278,6.71932778 118.426896,7.79283084 L118.611822,9.55751628 C118.673464,10.2320034 118.901707,10.7695897 119.269894,11.1686056 L117.325667,11.1686056 C117.065771,10.8313621 116.912498,10.3538786 116.850856,9.74116377 L116.712578,8.39218947 C116.652602,7.79283084 116.467675,7.36376353 116.162796,7.10331799 C115.841258,6.82617723 115.36478,6.70430208 114.753357,6.70430208 L111.92115,6.70430208 L111.92115,11.1686056 L110.130196,11.1686056 L110.130196,0.213198042 L114.99826,0.213198042 Z" id="Fill-36"></path>
                        <path d="M124.214594,7.59449155 C122.821814,7.62454296 122.132089,8.11538262 122.132089,9.06701053 C122.132089,9.34248176 122.238713,9.57454541 122.483616,9.7581929 C122.728518,9.94184039 123.035063,10.0486898 123.416578,10.0486898 C124.092975,10.0486898 124.659417,9.85001665 125.117568,9.46602644 C125.575719,9.06701053 125.822288,8.56114517 125.822288,7.94676083 L125.822288,7.54941444 L124.214594,7.59449155 Z M126.831886,3.8964989 C127.321691,4.40236426 127.56826,5.13862375 127.56826,6.10527736 L127.56826,11.1689395 L125.943906,11.1689395 L125.943906,10.1271574 C125.637361,10.5245038 125.255846,10.8166703 124.811023,11.0320387 C124.306224,11.2607633 123.708129,11.384308 123.020069,11.384308 C122.193731,11.384308 121.548987,11.1689395 121.075842,10.7548979 C120.584371,10.3258306 120.341134,9.78657479 120.341134,9.12878286 C120.341134,8.23892729 120.677667,7.54941444 121.382387,7.07360049 C122.025464,6.61114272 122.928439,6.36739241 124.092975,6.33567148 L125.822288,6.29059437 L125.822288,5.9834022 C125.822288,4.93995055 125.255846,4.43241567 124.121298,4.43241567 C123.631492,4.43241567 123.249977,4.50921371 122.958427,4.69453072 C122.621894,4.89487344 122.391985,5.20039608 122.300355,5.6144377 L120.569377,5.47586732 C120.739309,4.60270698 121.167472,3.95660171 121.855532,3.55925532 C122.438633,3.19029082 123.233317,3.02166903 124.246248,3.02166903 C125.409119,3.02166903 126.280439,3.3138355 126.831886,3.8964989 L126.831886,3.8964989 Z" id="Fill-37"></path>
                        <path d="M131.884043,3.23636965 L133.64501,3.23636965 L133.64501,4.67883721 L131.884043,4.67883721 L131.884043,9.15816646 C131.884043,9.34181395 131.915697,9.48038433 132.005662,9.5889033 C132.097292,9.68072705 132.220576,9.72747368 132.403837,9.72747368 L133.445089,9.72747368 L133.445089,11.1682717 L132.113952,11.1682717 C131.424226,11.1682717 130.919427,10.9846242 130.597888,10.6156597 C130.291343,10.2784162 130.138071,9.80427173 130.138071,9.15816646 L130.138071,4.67883721 L128.715304,4.67883721 L128.715304,3.23636965 L130.138071,3.23636965 L130.138071,1.39488617 L131.884043,0.675321909 L131.884043,3.23636965 Z" id="Fill-38"></path>
                        <path d="M135.249205,11.1677709 L136.995177,11.1677709 L136.995177,3.23586879 L135.249205,3.23586879 L135.249205,11.1677709 Z M136.981849,0.320882252 C137.196763,0.536250673 137.318382,0.811721909 137.318382,1.14896548 C137.318382,1.48620906 137.196763,1.77837552 136.965189,1.99374394 C136.73528,2.20911236 136.46039,2.31596181 136.123857,2.31596181 C135.787324,2.31596181 135.510767,2.20911236 135.280859,1.99374394 C135.05095,1.76334982 134.944326,1.48620906 134.944326,1.14896548 C134.944326,0.811721909 135.05095,0.536250673 135.280859,0.320882252 C135.510767,0.105513831 135.787324,0.000333904529 136.123857,0.000333904529 C136.46039,0.000333904529 136.75194,0.105513831 136.981849,0.320882252 L136.981849,0.320882252 Z" id="Fill-39"></path>
                        <path d="M141.144693,5.30707858 C140.80816,5.79958776 140.639894,6.4440235 140.639894,7.21200392 C140.639894,7.97831481 140.80816,8.60772485 141.144693,9.0985645 C141.542868,9.66453268 142.094315,9.95669914 142.829023,9.95669914 C143.548737,9.95669914 144.115178,9.66453268 144.511687,9.0985645 C144.851552,8.59102962 145.033147,7.96161958 145.033147,7.21200392 C145.033147,6.4440235 144.851552,5.79958776 144.511687,5.30707858 C144.115178,4.72441518 143.548737,4.44894394 142.829023,4.44894394 C142.094315,4.44894394 141.542868,4.72441518 141.144693,5.30707858 M145.722872,4.20352411 C146.442586,4.98653023 146.809107,5.98323525 146.809107,7.21200392 C146.809107,8.42240783 146.442586,9.41911285 145.737866,10.1870933 C145.003158,10.9834556 144.023548,11.384141 142.829023,11.384141 C141.619504,11.384141 140.654888,10.9834556 139.92018,10.1870933 C139.200466,9.41911285 138.84894,8.42240783 138.84894,7.21200392 C138.84894,5.98323525 139.200466,4.98653023 139.935174,4.20352411 C140.654888,3.40382277 141.619504,3.02150208 142.829023,3.02150208 C144.023548,3.02150208 144.988164,3.40382277 145.722872,4.20352411" id="Fill-40"></path>
                    </g>
                </g>
            </g>
        </g>
    </g>
</svg>